REM DIRINDEX 1\2,1\3,1\4
REM DIRNAME cjc151,folder01,folder02,folder03
TITLE ""
FILE "086 086_TOEFL_3900.mp3" MP3
  TRACK 01 AUDIO
    TITLE "2:cjc151_3736"
    INDEX 01 00:00:00
  TRACK 02 AUDIO
    TITLE "0:"
    INDEX 01 00:01:19
  TRACK 03 AUDIO
    TITLE "3:cjc151_3737"
    INDEX 01 00:02:71
  TRACK 04 AUDIO
    TITLE "0:"
    INDEX 01 00:06:47
  TRACK 05 AUDIO
    TITLE "2:cjc151_3738"
    INDEX 01 00:08:26
  TRACK 06 AUDIO
    TITLE "0:"
    INDEX 01 00:09:28
  TRACK 07 AUDIO
    TITLE "3:cjc151_3739"
    INDEX 01 00:11:07
  TRACK 08 AUDIO
    TITLE "0:"
    INDEX 01 00:13:73
  TRACK 09 AUDIO
    TITLE "2:cjc151_3740"
    INDEX 01 00:15:52
  TRACK 10 AUDIO
    TITLE "0:"
    INDEX 01 00:16:67
  TRACK 11 AUDIO
    TITLE "3:cjc151_3741"
    INDEX 01 00:18:42
  TRACK 12 AUDIO
    TITLE "0:"
    INDEX 01 00:22:30
  TRACK 13 AUDIO
    TITLE "2:cjc151_3742"
    INDEX 01 00:24:06
  TRACK 14 AUDIO
    TITLE "0:"
    INDEX 01 00:25:01
  TRACK 15 AUDIO
    TITLE "3:cjc151_3743"
    INDEX 01 00:26:58
  TRACK 16 AUDIO
    TITLE "0:"
    INDEX 01 00:30:28
  TRACK 17 AUDIO
    TITLE "2:cjc151_3744"
    INDEX 01 00:32:17
  TRACK 18 AUDIO
    TITLE "0:"
    INDEX 01 00:33:38
  TRACK 19 AUDIO
    TITLE "3:cjc151_3745"
    INDEX 01 00:35:10
  TRACK 20 AUDIO
    TITLE "0:"
    INDEX 01 00:39:21
  TRACK 21 AUDIO
    TITLE "2:cjc151_3746"
    INDEX 01 00:40:73
  TRACK 22 AUDIO
    TITLE "0:"
    INDEX 01 00:42:04
  TRACK 23 AUDIO
    TITLE "3:cjc151_3747"
    INDEX 01 00:43:52
  TRACK 24 AUDIO
    TITLE "0:"
    INDEX 01 00:47:60
  TRACK 25 AUDIO
    TITLE "2:cjc151_3748"
    INDEX 01 00:49:39
  TRACK 26 AUDIO
    TITLE "0:"
    INDEX 01 00:50:46
  TRACK 27 AUDIO
    TITLE "3:cjc151_3749"
    INDEX 01 00:52:20
  TRACK 28 AUDIO
    TITLE "0:"
    INDEX 01 00:56:55
  TRACK 29 AUDIO
    TITLE "2:cjc151_3750"
    INDEX 01 00:58:34
  TRACK 30 AUDIO
    TITLE "0:"
    INDEX 01 00:59:49
  TRACK 31 AUDIO
    TITLE "3:cjc151_3751"
    INDEX 01 01:01:23
  TRACK 32 AUDIO
    TITLE "0:"
    INDEX 01 01:05:17
  TRACK 33 AUDIO
    TITLE "2:cjc151_3752"
    INDEX 01 01:06:69
  TRACK 34 AUDIO
    TITLE "0:"
    INDEX 01 01:07:64
  TRACK 35 AUDIO
    TITLE "3:cjc151_3753"
    INDEX 01 01:09:44
  TRACK 36 AUDIO
    TITLE "0:"
    INDEX 01 01:13:38
  TRACK 37 AUDIO
    TITLE "2:cjc151_3754"
    INDEX 01 01:15:17
  TRACK 38 AUDIO
    TITLE "0:"
    INDEX 01 01:16:16
  TRACK 39 AUDIO
    TITLE "3:cjc151_3755"
    INDEX 01 01:17:71
  TRACK 40 AUDIO
    TITLE "0:"
    INDEX 01 01:21:43
  TRACK 41 AUDIO
    TITLE "2:cjc151_3756"
    INDEX 01 01:23:38
  TRACK 42 AUDIO
    TITLE "0:"
    INDEX 01 01:24:39
  TRACK 43 AUDIO
    TITLE "3:cjc151_3757"
    INDEX 01 01:26:15
  TRACK 44 AUDIO
    TITLE "0:"
    INDEX 01 01:29:09
  TRACK 45 AUDIO
    TITLE "2:cjc151_3758"
    INDEX 01 01:30:66
  TRACK 46 AUDIO
    TITLE "0:"
    INDEX 01 01:32:04
  TRACK 47 AUDIO
    TITLE "3:cjc151_3759"
    INDEX 01 01:33:58
  TRACK 48 AUDIO
    TITLE "0:"
    INDEX 01 01:38:06
  TRACK 49 AUDIO
    TITLE "2:cjc151_3760"
    INDEX 01 01:39:63
  TRACK 50 AUDIO
    TITLE "0:"
    INDEX 01 01:40:64
  TRACK 51 AUDIO
    TITLE "3:cjc151_3761"
    INDEX 01 01:42:41
  TRACK 52 AUDIO
    TITLE "0:"
    INDEX 01 01:45:26
  TRACK 53 AUDIO
    TITLE "2:cjc151_3762"
    INDEX 01 01:47:03
  TRACK 54 AUDIO
    TITLE "0:"
    INDEX 01 01:48:14
  TRACK 55 AUDIO
    TITLE "3:cjc151_3763"
    INDEX 01 01:49:69
  TRACK 56 AUDIO
    TITLE "0:"
    INDEX 01 01:53:20
  TRACK 57 AUDIO
    TITLE "2:cjc151_3764"
    INDEX 01 01:54:72
  TRACK 58 AUDIO
    TITLE "0:"
    INDEX 01 01:55:73
  TRACK 59 AUDIO
    TITLE "3:cjc151_3765"
    INDEX 01 01:57:51
  TRACK 60 AUDIO
    TITLE "0:"
    INDEX 01 02:00:51
  TRACK 61 AUDIO
    TITLE "2:cjc151_3766"
    INDEX 01 02:02:32
  TRACK 62 AUDIO
    TITLE "0:"
    INDEX 01 02:03:51
  TRACK 63 AUDIO
    TITLE "3:cjc151_3767"
    INDEX 01 02:05:31
  TRACK 64 AUDIO
    TITLE "0:"
    INDEX 01 02:08:70
  TRACK 65 AUDIO
    TITLE "2:cjc151_3768"
    INDEX 01 02:10:49
  TRACK 66 AUDIO
    TITLE "0:"
    INDEX 01 02:11:63
  TRACK 67 AUDIO
    TITLE "3:cjc151_3769"
    INDEX 01 02:13:42
  TRACK 68 AUDIO
    TITLE "0:"
    INDEX 01 02:17:73
  TRACK 69 AUDIO
    TITLE "2:cjc151_3770"
    INDEX 01 02:19:52
  TRACK 70 AUDIO
    TITLE "0:"
    INDEX 01 02:20:61
  TRACK 71 AUDIO
    TITLE "3:cjc151_3771"
    INDEX 01 02:22:41
  TRACK 72 AUDIO
    TITLE "0:"
    INDEX 01 02:26:11
  TRACK 73 AUDIO
    TITLE "2:cjc151_3772"
    INDEX 01 02:27:63
  TRACK 74 AUDIO
    TITLE "0:"
    INDEX 01 02:28:71
  TRACK 75 AUDIO
    TITLE "3:cjc151_3773"
    INDEX 01 02:30:50
  TRACK 76 AUDIO
    TITLE "0:"
    INDEX 01 02:35:04
  TRACK 77 AUDIO
    TITLE "2:cjc151_3774"
    INDEX 01 02:36:60
  TRACK 78 AUDIO
    TITLE "0:"
    INDEX 01 02:37:68
  TRACK 79 AUDIO
    TITLE "3:cjc151_3775"
    INDEX 01 02:39:47
  TRACK 80 AUDIO
    TITLE "0:"
    INDEX 01 02:43:17
  TRACK 81 AUDIO
    TITLE "2:cjc151_3776"
    INDEX 01 02:44:72
  TRACK 82 AUDIO
    TITLE "0:"
    INDEX 01 02:45:71
  TRACK 83 AUDIO
    TITLE "3:cjc151_3777"
    INDEX 01 02:47:51
  TRACK 84 AUDIO
    TITLE "0:"
    INDEX 01 02:51:01
  TRACK 85 AUDIO
    TITLE "2:cjc151_3778"
    INDEX 01 02:52:56
  TRACK 86 AUDIO
    TITLE "0:"
    INDEX 01 02:53:57
  TRACK 87 AUDIO
    TITLE "3:cjc151_3779"
    INDEX 01 02:55:36
  TRACK 88 AUDIO
    TITLE "0:"
    INDEX 01 02:58:68
